HIERARCHY
ROOT hip
{
  OFFSET 0 0 0
  CHANNELS 6 Xposition Yposition Zposition Zrotation Yrotation Xrotation
  JOINT abdomen
  {
    OFFSET 0 20.6881 -0.73152
    CHANNELS 3 Zrotation Xrotation Yrotation
    JOINT chest
    {
      OFFSET 0 11.7043 -0.48768
      CHANNELS 3 Zrotation Xrotation Yrotation
      JOINT neck
      {
        OFFSET 0 22.1894 -2.19456
        CHANNELS 3 Zrotation Xrotation Yrotation
        JOINT head
        {
          OFFSET -0.24384 7.07133 1.2192
          CHANNELS 3 Zrotation Xrotation Yrotation
          JOINT leftEye
          {
            OFFSET 4.14528 8.04674 8.04672
            CHANNELS 3 Zrotation Xrotation Yrotation
            End Site
            {
              OFFSET 1 0 0
            }
          }
          JOINT rightEye
          {
            OFFSET -3.6576 8.04674 8.04672
            CHANNELS 3 Zrotation Xrotation Yrotation
            End Site
            {
              OFFSET 1 0 0
            }
          }
        }
      }
      JOINT rCollar
      {
        OFFSET -2.68224 19.2634 -4.8768
        CHANNELS 3 Zrotation Xrotation Yrotation
        JOINT rShldr
        {
          OFFSET -8.77824 -1.95073 1.46304
          CHANNELS 3 Zrotation Xrotation Yrotation
          JOINT rForeArm
          {
            OFFSET -28.1742 -1.7115 0.48768
            CHANNELS 3 Zrotation Xrotation Yrotation
            JOINT rHand
            {
              OFFSET -22.5879 0.773209 7.07136
              CHANNELS 3 Zrotation Xrotation Yrotation
              JOINT rThumb1
              {
                OFFSET -1.2192 -0.487915 3.41376
                CHANNELS 3 Zrotation Xrotation Yrotation
                JOINT rThumb2
                {
                  OFFSET -3.37035 -0.52449 3.41376
                  CHANNELS 3 Zrotation Xrotation Yrotation
                  End Site
                  {
                    OFFSET -1.78271 -1.18214 1.43049
                  }
                }
              }
              JOINT rIndex1
              {
                OFFSET -7.75947 0.938293 5.60832
                CHANNELS 3 Zrotation Xrotation Yrotation
                JOINT rIndex2
                {
                  OFFSET -2.54057 -0.884171 1.56538
                  CHANNELS 3 Zrotation Xrotation Yrotation
                  End Site
                  {
                    OFFSET -1.62519 -0.234802 1.16502
                  }
                }
              }
              JOINT rMid1
              {
                OFFSET -8.24714 1.18213 3.41376
                CHANNELS 3 Zrotation Xrotation Yrotation
                JOINT rMid2
                {
                  OFFSET -3.10165 -0.590103 1.0647
                  CHANNELS 3 Zrotation Xrotation Yrotation
                  End Site
                  {
                    OFFSET -2.48547 -0.328903 0.83742
                  }
                }
              }
              JOINT rRing1
              {
                OFFSET -8.82822 0.546677 1.51678
                CHANNELS 3 Zrotation Xrotation Yrotation
                JOINT rRing2
                {
                  OFFSET -2.60934 -0.819778 -0.0198488
                  CHANNELS 3 Zrotation Xrotation Yrotation
                  End Site
                  {
                    OFFSET -2.33842 -0.294052 0.168128
                  }
                }
              }
              JOINT rPinky1
              {
                OFFSET -8.27202 -0.0477905 -0.4584
                CHANNELS 3 Zrotation Xrotation Yrotation
                JOINT rPinky2
                {
                  OFFSET -1.82734 -0.647385 -0.700984
                  CHANNELS 3 Zrotation Xrotation Yrotation
                  End Site
                  {
                    OFFSET -1.69225 -0.51767 -0.607171
                  }
                }
              }
            }
          }
        }
      }
      JOINT lCollar
      {
        OFFSET 2.68224 19.2634 -4.8768
        CHANNELS 3 Zrotation Xrotation Yrotation
        JOINT lShldr
        {
          OFFSET 8.77824 -1.95073 1.46304
          CHANNELS 3 Zrotation Xrotation Yrotation
          JOINT lForeArm
          {
            OFFSET 28.1742 -1.7115 0.48768
            CHANNELS 3 Zrotation Xrotation Yrotation
            JOINT lHand
            {
              OFFSET 22.5879 0.773209 7.07136
              CHANNELS 3 Zrotation Xrotation Yrotation
              JOINT lThumb1
              {
                OFFSET 1.2192 -0.487915 3.41376
                CHANNELS 3 Zrotation Xrotation Yrotation
                JOINT lThumb2
                {
                  OFFSET 3.37035 -0.52449 3.41376
                  CHANNELS 3 Zrotation Xrotation Yrotation
                  End Site
                  {
                    OFFSET 1.78271 -1.18214 1.43049
                  }
                }
              }
              JOINT lIndex1
              {
                OFFSET 7.75947 0.938293 5.60832
                CHANNELS 3 Zrotation Xrotation Yrotation
                JOINT lIndex2
                {
                  OFFSET 2.54057 -0.884171 1.56538
                  CHANNELS 3 Zrotation Xrotation Yrotation
                  End Site
                  {
                    OFFSET 1.62519 -0.234802 1.16502
                  }
                }
              }
              JOINT lMid1
              {
                OFFSET 8.24714 1.18213 3.41376
                CHANNELS 3 Zrotation Xrotation Yrotation
                JOINT lMid2
                {
                  OFFSET 3.10165 -0.590103 1.0647
                  CHANNELS 3 Zrotation Xrotation Yrotation
                  End Site
                  {
                    OFFSET 2.48547 -0.328903 0.83742
                  }
                }
              }
              JOINT lRing1
              {
                OFFSET 8.82822 0.546677 1.51678
                CHANNELS 3 Zrotation Xrotation Yrotation
                JOINT lRing2
                {
                  OFFSET 2.60934 -0.819778 -0.0198488
                  CHANNELS 3 Zrotation Xrotation Yrotation
                  End Site
                  {
                    OFFSET 2.33842 -0.294052 0.168128
                  }
                }
              }
              JOINT lPinky1
              {
                OFFSET 8.27202 -0.0477905 -0.4584
                CHANNELS 3 Zrotation Xrotation Yrotation
                JOINT lPinky2
                {
                  OFFSET 1.82734 -0.647385 -0.700984
                  CHANNELS 3 Zrotation Xrotation Yrotation
                  End Site
                  {
                    OFFSET 1.69225 -0.51767 -0.607171
                  }
                }
              }
            }
          }
        }
      }
    }
  }
  JOINT rButtock
  {
    OFFSET -8.77824 4.35084 1.2192
    CHANNELS 3 Zrotation Xrotation Yrotation
    JOINT rThigh
    {
      OFFSET 0 -1.70687 -2.19456
      CHANNELS 3 Zrotation Xrotation Yrotation
      JOINT rShin
      {
        OFFSET 0 -36.8199 0.73152
        CHANNELS 3 Zrotation Xrotation Yrotation
        JOINT rFoot
        {
          OFFSET 0.73152 -45.1104 -5.12064
          CHANNELS 3 Zrotation Xrotation Yrotation
          End Site
          {
            OFFSET -1.1221 -3.69964 12.103
          }
        }
      }
    }
  }
  JOINT lButtock
  {
    OFFSET 8.77824 4.35084 1.2192
    CHANNELS 3 Zrotation Xrotation Yrotation
    JOINT lThigh
    {
      OFFSET 0 -1.70687 -2.19456
      CHANNELS 3 Zrotation Xrotation Yrotation
      JOINT lShin
      {
        OFFSET 0 -36.8199 0.73152
        CHANNELS 3 Zrotation Xrotation Yrotation
        JOINT lFoot
        {
          OFFSET -0.73152 -45.1104 -5.12064
          CHANNELS 3 Zrotation Xrotation Yrotation
          End Site
          {
            OFFSET 1.1221 -3.69964 12.103
          }
        }
      }
    }
  }
}
MOTION
Frames:	6
Frame Time:	0.00833333
-210.553 83.282 -32.3832 0.0 0.0 0.0 -2.96289 0.0018361 -0.0799159 -0.816457 0.0169089 -0.141252 -6.65628e-14 0.0 -3.47873e-16 -1.99148e-13 3.18055e-15 -1.09642e-15 -0.0 0.0 0.0 -0.0 0.0 0.0 -3.31498e-14 -6.21202e-18 4.96962e-17 -6.95977e-13 -3.10601e-16 -4.17448e-15 -1.19739e-11 3.59582e-12 3.49861e-14 -1.37444e-10 -3.64924e-12 -8.39666e-13 -3.24133e-10 -1.14195e-13 -1.69842e-12 -5.59771e-10 -1.94014e-13 -2.92929e-12 -3.24128e-10 -1.12115e-13 -1.7175e-12 7.73091 5.47488 0.417314 -3.24133e-10 -1.14202e-13 -1.69842e-12 2.90554 0.965183 0.102902 -3.24122e-10 -1.13904e-13 -1.70001e-12 10.2786 0.731801 0.0259123 -3.24137e-10 -1.1291e-13 -1.68887e-12 2.22167 -0.733487 -0.20892 -3.33459e-14 -7.18265e-18 -3.47873e-16 -6.99502e-13 1.30452e-16 -5.96354e-15 -1.20412e-11 -3.58985e-12 5.725e-14 -1.37398e-10 3.55864e-12 -8.49208e-13 -3.24174e-10 -7.23356e-14 -1.70796e-12 -5.59827e-10 -1.27222e-13 -2.9277e-12 -3.24176e-10 -7.35503e-14 -1.7016e-12 -7.73091 5.47488 -0.417314 -3.24174e-10 -7.20594e-14 -1.70478e-12 -2.90554 0.965183 -0.102902 -3.24179e-10 -7.21588e-14 -1.70557e-12 -10.2786 0.731801 -0.0259123 -3.24167e-10 -7.07673e-14 -1.71432e-12 -2.22167 -0.733487 0.20892 -2.03217e-16 0.0 -3.88251e-19 -1.77237 -1.93398 0.0122176 -0.0086676 -2.07864 -0.0712374 -0.477511 3.99977 0.135239 2.03217e-16 0.0 3.88251e-19 -2.72822 -9.04332 0.303213 -0.00826915 10.7977 -0.214925 0.538045 -1.76714 -0.0241634
-216.882 82.6084 -38.9907 -105.989 -86.0551 104.726 -1.73857 -0.0260922 -0.368113 -1.53716 0.912321 -0.250536 0.144316 2.48431 -0.143296 1.0029 -6.11143 -0.120049 -0.0 0.0 0.0 -0.0 0.0 0.0 -8.77729e-15 -5.20401e-13 -1.38846e-14 22.4984 5.425 0.152198 -3.81551 -1.66037 6.03662 0.00211159 1.02025 0.143305 -5.73128e-10 3.96983e-12 5.27361e-10 -9.87561e-10 6.26323e-12 9.12917e-10 -5.73124e-10 3.97108e-12 5.27346e-10 7.73091 5.47488 0.417314 -5.7313e-10 3.96741e-12 5.27365e-10 2.90554 0.965183 0.102902 -5.73121e-10 3.96908e-12 5.27361e-10 10.2786 0.731801 0.0259123 -5.73132e-10 3.96982e-12 5.27373e-10 2.22167 -0.733487 -0.20892 -8.90347e-15 -5.20403e-13 -1.42403e-14 -21.5519 7.03681 0.0808867 4.01467 -1.787 -6.3122 -0.0389101 -4.37793 0.608808 -5.32146e-10 -3.3127e-11 -6.88247e-10 -9.12728e-10 -6.00575e-11 -1.19292e-09 -5.32148e-10 -3.31276e-11 -6.88237e-10 -7.73091 5.47488 -0.417314 -5.32146e-10 -3.31266e-11 -6.88242e-10 -2.90554 0.965183 -0.102902 -5.32152e-10 -3.31263e-11 -6.88243e-10 -10.2786 0.731801 -0.0259123 -5.32141e-10 -3.31255e-11 -6.88251e-10 -2.22167 -0.733487 0.20892 -2.03217e-16 0.0 -3.88251e-19 -0.354079 -3.20325 1.63653 0.0336287 6.12611 0.132023 -0.997631 -2.62958 -3.74196 2.03217e-16 0.0 3.88251e-19 -0.504895 -7.4878 1.80583 -0.0332977 14.4158 -0.264962 0.645897 -6.04287 1.05311
-216.878 82.6064 -38.997 -105.93 -86.0281 104.686 -0.444065 -0.055171 -0.672864 -2.29547 1.85855 -0.366172 0.31008 5.10927 -0.294953 2.03438 -12.5701 -0.250224 -0.0 0.0 0.0 -0.0 0.0 0.0 1.81059e-14 -1.10832e-12 -2.96376e-14 46.2499 11.16 0.317031 -7.47019 -3.3537 12.4332 -0.00121722 2.10379 0.295655 -8.67695e-10 2.22036e-12 1.14828e-09 -1.49369e-09 2.53311e-12 1.98776e-09 -8.67692e-10 2.22072e-12 1.14827e-09 7.73091 5.47488 0.417314 -8.67699e-10 2.21531e-12 1.14829e-09 2.90554 0.965183 0.102902 -8.67692e-10 2.21845e-12 1.14828e-09 10.2786 0.731801 0.0259123 -8.677e-10 2.21894e-12 1.14829e-09 2.22167 -0.733487 -0.20892 1.80554e-14 -1.10833e-12 -2.99482e-14 -44.3562 14.478 0.170056 7.83351 -3.60387 -13.0048 0.0222741 -9.00657 1.26464 -7.71176e-10 -6.51507e-11 -1.48426e-09 -1.31826e-09 -1.18555e-10 -2.57251e-09 -7.71178e-10 -6.51508e-11 -1.48424e-09 -7.73091 5.47488 -0.417314 -7.71175e-10 -6.51502e-11 -1.48425e-09 -2.90554 0.965183 -0.102902 -7.71183e-10 -6.51496e-11 -1.48425e-09 -10.2786 0.731801 -0.0259123 -7.71173e-10 -6.51493e-11 -1.48426e-09 -2.22167 -0.733487 0.20892 -2.03217e-16 0.0 -3.88251e-19 1.22356 -4.53938 3.35802 0.0133407 14.7989 0.356985 -2.53114 -9.55547 -7.94497 2.03217e-16 0.0 3.88251e-19 1.75668 -5.8406 3.38446 -0.0524912 18.2426 -0.320874 0.937599 -10.5583 2.2175
-216.879 82.6072 -39.0051 -105.894 -85.9919 104.648 0.709228 -0.0819393 -0.944507 -2.96832 2.70308 -0.469529 0.470498 7.45275 -0.433144 2.92836 -18.334 -0.377251 -0.0 0.0 0.0 -0.0 0.0 0.0 3.99677e-14 -1.56119e-12 -4.17533e-14 67.4058 16.2745 0.473523 -10.4133 -4.76037 18.1671 -0.00899445 3.06067 0.430461 -1.07112e-09 1.21379e-11 1.58548e-09 -1.84314e-09 1.91777e-11 2.74461e-09 -1.07111e-09 1.21375e-11 1.58547e-09 7.73091 5.47488 0.417314 -1.07112e-09 1.21306e-11 1.58549e-09 2.90554 0.965183 0.102902 -1.07112e-09 1.2135e-11 1.58548e-09 10.2786 0.731801 0.0259123 -1.07112e-09 1.21353e-11 1.5855e-09 2.22167 -0.733487 -0.20892 3.99813e-14 -1.56119e-12 -4.20251e-14 -64.7188 21.1103 0.258158 10.8827 -5.10126 -19.0055 0.168704 -13.1278 1.86998 -9.4809e-10 -9.92363e-11 -2.06133e-09 -1.61853e-09 -1.79918e-10 -3.57289e-09 -9.48093e-10 -9.92358e-11 -2.06131e-09 -7.73091 5.47488 -0.417314 -9.48089e-10 -9.92357e-11 -2.06132e-09 -2.90554 0.965183 -0.102902 -9.48098e-10 -9.92347e-11 -2.06132e-09 -10.2786 0.731801 -0.0259123 -9.48089e-10 -9.92349e-11 -2.06132e-09 -2.22167 -0.733487 0.20892 -2.03217e-16 0.0 -3.88251e-19 2.69908 -5.72484 4.90201 -0.0671617 22.5346 0.580512 -4.788 -15.5785 -11.9281 2.03217e-16 0.0 3.88251e-19 3.69661 -4.37232 4.78636 -0.0627208 21.6519 -0.37401 1.35779 -14.5743 3.29625
-216.873 82.6052 -38.9977 -105.683 -86.0065 104.458 1.51007 -0.10294 -1.13338 -3.4348 3.2934 -0.541806 0.591289 9.09271 -0.534618 3.53494 -22.361 -0.480659 -0.0 0.0 0.0 -0.0 0.0 0.0 4.92759e-14 -1.67642e-12 -4.47762e-14 82.1361 19.8381 0.593255 -12.2987 -5.66031 22.1896 -0.0168286 3.70098 0.52087 -1.04668e-09 5.12228e-11 1.56338e-09 -1.8009e-09 8.67592e-11 2.70645e-09 -1.04668e-09 5.1222e-11 1.56338e-09 7.73091 5.47488 0.417314 -1.04668e-09 5.12146e-11 1.56339e-09 2.90554 0.965183 0.102902 -1.04668e-09 5.12197e-11 1.56338e-09 10.2786 0.731801 0.0259123 -1.04668e-09 5.12197e-11 1.5634e-09 2.22167 -0.733487 -0.20892 4.93246e-14 -1.67643e-12 -4.50247e-14 -78.9322 25.7206 0.329113 12.8188 -6.0474 -23.2105 0.324056 -15.9861 2.3075 -9.69715e-10 -1.38477e-10 -2.09105e-09 -1.65564e-09 -2.48443e-10 -3.62522e-09 -9.69717e-10 -1.38476e-10 -2.09103e-09 -7.73091 5.47488 -0.417314 -9.69714e-10 -1.38476e-10 -2.09104e-09 -2.90554 0.965183 -0.102902 -9.69724e-10 -1.38475e-10 -2.09104e-09 -10.2786 0.731801 -0.0259123 -9.69715e-10 -1.38475e-10 -2.09104e-09 -2.22167 -0.733487 0.20892 -2.03217e-16 0.0 -3.88251e-19 3.76667 -6.54856 5.98803 -0.164192 27.9287 0.758501 -6.89038 -19.6536 -14.9048 2.03217e-16 0.0 3.88251e-19 5.00477 -3.35134 5.76049 -0.0656066 24.0178 -0.413133 1.74402 -17.3602 4.07998
-216.877 82.6037 -38.9941 -105.539 -86.0061 104.331 1.81599 -0.115984 -1.20638 -3.61527 3.52759 -0.57048 0.637753 9.7434 -0.581272 3.77943 -23.9504 -0.533486 -0.0 0.0 0.0 -0.0 0.0 0.0 4.17451e-14 -1.25622e-12 -3.05208e-14 87.9018 21.2326 0.648853 -13.0073 -5.9953 23.783 -0.0197885 3.8897 0.547566 -6.78082e-10 1.38054e-10 7.7812e-10 -1.16737e-09 2.37633e-10 1.3475e-09 -6.78081e-10 1.38054e-10 7.78118e-10 7.73091 5.47488 0.417314 -6.78088e-10 1.38047e-10 7.78131e-10 2.90554 0.965183 0.102902 -6.78082e-10 1.38052e-10 7.78123e-10 10.2786 0.731801 0.0259123 -6.78086e-10 1.38051e-10 7.78134e-10 2.22167 -0.733487 -0.20892 4.17884e-14 -1.25622e-12 -3.07724e-14 -84.5132 27.4999 0.365117 13.536 -6.39179 -24.8616 0.396 -17.0766 2.47929 -7.7648e-10 -1.77175e-10 -1.21908e-09 -1.33009e-09 -3.13313e-10 -2.11627e-09 -7.76482e-10 -1.77174e-10 -1.21906e-09 -7.73091 5.47488 -0.417314 -7.76478e-10 -1.77175e-10 -1.21907e-09 -2.90554 0.965183 -0.102902 -7.76488e-10 -1.77173e-10 -1.21908e-09 -10.2786 0.731801 -0.0259123 -7.7648e-10 -1.77173e-10 -1.21908e-09 -2.22167 -0.733487 0.20892 -2.03217e-16 0.0 -3.88251e-19 4.19488 -6.87611 6.42551 -0.213111 30.0473 0.837219 -7.8379 -21.2455 -16.1084 2.03217e-16 0.0 3.88251e-19 5.50326 -2.95281 6.13885 -0.0655148 24.9204 -0.428569 1.91563 -18.436 4.39498
